# xmcd
#
# Track frame offsets: 
#        150
#        13942
#        30102
#        41055
#        60752
#        80927
#        95915
#        109750
#        122257
#        135730
#        146315
#        159862
#        172722
#        187830
#
# Disc length: 2663 seconds
#
# Revision: 6
# Processed by: cddbd v1.5.2PL0 Copyright (c) Steve Scherf et al.
# Submitted via: ExactAudioCopyFreeDBPlugin 1.0
#
DISCID=a30a650e
DTITLE=Chet Baker - Chet Baker Sings
DYEAR=1956
DGENRE=Jazz
TTITLE0=That Old Feeling
TTITLE1=It's Always You
TTITLE2=Like Someone in Love
TTITLE3=My Ideal
TTITLE4=I've Never Been in Love Before
TTITLE5=My Buddy
TTITLE6=But Not for Me
TTITLE7=Time After Time
TTITLE8=I Get Along Without You Very Well
TTITLE9=My Funny Valentine
TTITLE10=There Will Never Be Another You
TTITLE11=The Thrill Is Gone
TTITLE12=I Fall In Love Too Easily
TTITLE13=Look for the Silver Lining
EXTD=YEAR: 1956
EXTT0=
EXTT1=
EXTT2=
EXTT3=
EXTT4=
EXTT5=
EXTT6=
EXTT7=
EXTT8=
EXTT9=
EXTT10=
EXTT11=
EXTT12=
EXTT13=
PLAYORDER=
